# Blender v2.79 (sub 0) OBJ File: ''
# www.blender.org
mtllib 2Box.mtl
o 2Box
v 0.000000 0.000000 0.000000
v 0.000000 0.000000 -1.000000
v 1.000000 0.000000 -1.000000
v 1.000000 0.000000 0.000000
v 0.000000 2.000000 0.000000
v 1.000000 2.000000 0.000000
v 1.000000 2.000000 -1.000000
v 0.000000 2.000000 -1.000000
v 1.000000 1.000000 -1.000000
v 0.000000 1.000000 -1.000000
v 0.000000 1.000000 0.000000
v 1.000000 1.000000 0.000000
vn 0.0000 -1.0000 0.0000
vn 0.0000 1.0000 0.0000
vn 0.0000 0.0000 -1.0000
vn 0.0000 0.0000 1.0000
vn 1.0000 0.0000 0.0000
vn -1.0000 0.0000 0.0000
usemtl None
s off
f 1//1 2//1 3//1
f 3//1 4//1 1//1
f 5//2 6//2 7//2
f 7//2 8//2 5//2
f 9//3 10//3 8//3
f 8//3 7//3 9//3
f 11//4 12//4 6//4
f 6//4 5//4 11//4
f 12//5 9//5 7//5
f 7//5 6//5 12//5
f 10//6 11//6 5//6
f 5//6 8//6 10//6
f 2//6 1//6 11//6
f 11//6 10//6 2//6
f 4//5 3//5 9//5
f 9//5 12//5 4//5
f 1//4 4//4 12//4
f 12//4 11//4 1//4
f 3//3 2//3 10//3
f 10//3 9//3 3//3
